<?xml version="1.0" encoding="UTF-8" standalone="no"?>
<!-- Created with Inkscape (http://www.inkscape.org/) -->

<svg
   width="182.82436mm"
   height="62.451714mm"
   viewBox="0 0 182.82436 62.451714"
   version="1.1"
   id="svg5"
   inkscape:version="1.2.2 (732a01da63, 2022-12-09)"
   sodipodi:docname="logo_sanifae.svg"
   xmlns:inkscape="http://www.inkscape.org/namespaces/inkscape"
   xmlns:sodipodi="http://sodipodi.sourceforge.net/DTD/sodipodi-0.dtd"
   xmlns="http://www.w3.org/2000/svg"
   xmlns:svg="http://www.w3.org/2000/svg">
  <sodipodi:namedview
     id="namedview7"
     pagecolor="#000000"
     bordercolor="#666666"
     borderopacity="1.0"
     inkscape:showpageshadow="2"
     inkscape:pageopacity="0"
     inkscape:pagecheckerboard="0"
     inkscape:deskcolor="#d1d1d1"
     inkscape:document-units="mm"
     showgrid="false"
     inkscape:zoom="1.4538721"
     inkscape:cx="312.26956"
     inkscape:cy="134.4685"
     inkscape:window-width="1920"
     inkscape:window-height="996"
     inkscape:window-x="-8"
     inkscape:window-y="-8"
     inkscape:window-maximized="1"
     inkscape:current-layer="layer1"
     showguides="true" />
  <defs
     id="defs2" />
  <g
     inkscape:label="Layer 1"
     inkscape:groupmode="layer"
     id="layer1"
     transform="translate(-47.222766,-37.28551)">
    <g
       id="g20517"
       transform="matrix(0.4180562,0,0,0.42155657,2.753431,21.853727)"
       inkscape:export-filename="logo_sanifae.svg"
       inkscape:export-xdpi="1031.03"
       inkscape:export-ydpi="1031.03"
       style="fill:#ffffff;fill-opacity:1;fill-rule:evenodd;stroke:none;stroke-width:9.45385;stroke-linecap:round;stroke-linejoin:round;stroke-dasharray:none;stroke-opacity:1;paint-order:stroke fill markers">
      <path
         id="ellipse20462"
         style="opacity:1;fill:#ffffff;fill-opacity:1;fill-rule:evenodd;stroke:none;stroke-width:9.45385;stroke-linecap:round;stroke-linejoin:round;stroke-miterlimit:3.96999;stroke-dasharray:none;stroke-opacity:1;paint-order:stroke fill markers"
         d="m 179.51388,54.73459 a 54.946752,56.013673 0 0 0 -54.9466,56.01424 54.946752,56.013673 0 0 0 54.9466,56.01365 54.946752,56.013673 0 0 0 46.32654,-25.93699 l -8.72245,-5.66291 a 44.605491,45.471613 0 0 1 -37.60409,21.05732 44.605491,45.471613 0 0 1 -44.60536,-45.47107 44.605491,45.471613 0 0 1 44.60536,-45.471649 44.605491,45.471613 0 0 1 37.61888,21.048209 l 8.72302,-5.662909 A 54.946752,56.013673 0 0 0 179.51388,54.73459 Z" />
      <path
         id="path20351"
         style="opacity:1;fill:#ffffff;fill-opacity:1;fill-rule:evenodd;stroke:none;stroke-width:9.45385;stroke-linecap:round;stroke-linejoin:round;stroke-miterlimit:3.96999;stroke-dasharray:none;stroke-opacity:1;paint-order:stroke fill markers"
         d="m -179.12012,71.140402 a 38.853859,39.608299 0 0 1 38.85342,39.608018 38.853859,39.608299 0 0 1 -38.85342,39.60877 38.853859,39.608299 0 0 1 -38.85418,-39.60877 38.853859,39.608299 0 0 1 38.85418,-39.608018 z m -2.6689,2.086413 c -1.81603,0 -3.30098,1.484955 -3.30098,3.300981 0,1.816023 1.48495,3.301733 3.30098,3.301733 1.81603,0 3.30173,-1.48571 3.30173,-3.301733 0,-1.816026 -1.4857,-3.300981 -3.30173,-3.300981 z m 0,1.220581 c 1.15641,0 2.08115,0.923986 2.08115,2.0804 0,1.15641 -0.92474,2.081152 -2.08115,2.081152 -1.15641,0 -2.0804,-0.924742 -2.0804,-2.081152 0,-1.156414 0.92399,-2.0804 2.0804,-2.0804 z m 10.24266,4.441143 c -9.52749,0 -17.31963,7.79214 -17.31963,17.31963 0,9.527481 7.79214,17.319631 17.31963,17.319631 9.5275,0 17.32039,-7.79215 17.32039,-17.319631 0,-9.52749 -7.79289,-17.31963 -17.32039,-17.31963 z m 0,6.403543 c 6.06693,0 10.91684,4.849162 10.91684,10.916087 0,6.066921 -4.84991,10.916841 -10.91684,10.916841 -6.06692,0 -10.91608,-4.84992 -10.91608,-10.916841 0,-6.066925 4.84916,-10.916087 10.91608,-10.916087 z m -34.39424,8.417803 c -2.94896,0 -5.36109,2.411367 -5.36109,5.360337 0,2.948968 2.41213,5.361088 5.36109,5.361088 2.94898,0 5.36109,-2.41212 5.36109,-5.361088 0,-2.94897 -2.41211,-5.360337 -5.36109,-5.360337 z m 0,1.981942 c 1.87785,0 3.37915,1.500546 3.37915,3.378395 0,1.877858 -1.5013,3.379148 -3.37915,3.379148 -1.87785,0 -3.37914,-1.50129 -3.37914,-3.379148 0,-1.877849 1.50129,-3.378395 3.37914,-3.378395 z m 4.52081,14.621423 c -6.05882,0 -11.01454,4.95497 -11.01454,11.01379 0,6.05882 4.95572,11.01455 11.01454,11.01455 6.05883,0 11.0138,-4.95573 11.0138,-11.01455 0,-6.05882 -4.95497,-11.01379 -11.0138,-11.01379 z m 48.6271,3.30775 c -4.10155,0 -7.45577,3.35422 -7.45577,7.45576 0,4.10155 3.35422,7.45577 7.45577,7.45577 4.10153,0 7.45652,-3.35422 7.45652,-7.45577 0,-4.10154 -3.35499,-7.45576 -7.45652,-7.45576 z m -48.6271,0.76436 c 3.85814,0 6.94169,3.08354 6.94169,6.94168 0,3.85814 -3.08355,6.94244 -6.94169,6.94244 -3.85814,0 -6.94243,-3.0843 -6.94243,-6.94244 0,-3.85814 3.08429,-6.94168 6.94243,-6.94168 z m 25.33008,0.68245 c -5.772,0 -10.49295,4.72093 -10.49295,10.49294 0,5.77199 4.72095,10.49294 10.49295,10.49294 5.772,0 10.49294,-4.72095 10.49294,-10.49294 0,-5.77201 -4.72094,-10.49294 -10.49294,-10.49294 z m 23.29702,1.30927 c 2.61177,0 4.69969,2.0879 4.69969,4.69968 0,2.61179 -2.08792,4.69969 -4.69969,4.69969 -2.61179,0 -4.69969,-2.0879 -4.69969,-4.69969 0,-2.61178 2.0879,-4.69968 4.69969,-4.69968 z m -23.29702,2.57043 c 3.67549,0 6.61323,2.93773 6.61323,6.61324 0,3.67549 -2.93774,6.61323 -6.61323,6.61323 -3.6755,0 -6.61324,-2.93774 -6.61324,-6.61323 0,-3.67551 2.93774,-6.61324 6.61324,-6.61324 z m -14.74093,15.1776 c -2.09552,0 -3.80981,1.71429 -3.80981,3.80981 0,2.09552 1.71429,3.80905 3.80981,3.80905 2.09552,0 3.80906,-1.71353 3.80906,-3.80905 0,-2.09552 -1.71354,-3.80981 -3.80906,-3.80981 z m 0,1.40848 c 1.33439,0 2.40058,1.06694 2.40058,2.40133 0,1.33439 -1.06619,2.40058 -2.40058,2.40058 -1.33439,0 -2.40133,-1.06619 -2.40133,-2.40058 0,-1.33439 1.06694,-2.40133 2.40133,-2.40133 z m 20.57101,5.23708 c -1.99632,0 -3.62943,1.63235 -3.62943,3.62867 0,1.99632 1.63311,3.62943 3.62943,3.62943 1.99631,0 3.62867,-1.63311 3.62867,-3.62943 0,-1.99632 -1.63236,-3.62867 -3.62867,-3.62867 z m 0,1.34158 c 1.27121,0 2.28708,1.01587 2.28708,2.28709 0,1.27122 -1.01587,2.28784 -2.28708,2.28784 -1.27122,0 -2.28709,-1.01662 -2.28709,-2.28784 0,-1.27122 1.01587,-2.28709 2.28709,-2.28709 z"
         transform="scale(-1,1)" />
    </g>
    <path
       id="path5030"
       style="font-weight:600;font-stretch:condensed;font-size:44.9535px;line-height:1.25;font-family:'Open Sans';-inkscape-font-specification:'Open Sans Semi-Bold Condensed';fill:#ffffff;fill-opacity:1;stroke:none;stroke-width:3.96875;stroke-linecap:round;stroke-linejoin:round;stroke-dasharray:none;stroke-opacity:1;paint-order:stroke fill markers"
       d="m 181.57313,51.123318 c -1.4487,0 -2.60464,0.329555 -3.46801,0.988053 -0.86336,0.643865 -1.48557,1.61684 -1.86603,2.919202 -0.36584,1.302363 -0.54881,2.933932 -0.54881,4.894792 v 1.185457 l -2.89698,1.426786 v 2.479952 h 2.89698 v 20.501591 h 4.60954 V 65.01756 h 3.88555 v -3.841109 h -3.88555 v -1.514636 c 0.0146,-1.712094 0.16829,-2.904428 0.46095,-3.57756 0.3073,-0.673131 0.84914,-1.009757 1.62471,-1.009757 0.36583,0 0.72419,0.04398 1.07539,0.131775 0.36583,0.07317 0.7535,0.182846 1.16323,0.329179 l 1.07539,-3.578076 c -0.76093,-0.292666 -1.45591,-0.504955 -2.08514,-0.636654 -0.6146,-0.1317 -1.29492,-0.197404 -2.04122,-0.197404 z m -14.1795,0.680579 c -0.878,0 -1.53659,0.248676 -1.97559,0.746207 -0.43899,0.497532 -0.65836,1.229418 -0.65836,2.195215 0,0.907264 0.22644,1.616904 0.68006,2.129069 0.46827,0.497532 1.11979,0.746208 1.95389,0.746208 0.84873,0 1.48508,-0.248676 1.90944,-0.746208 0.439,-0.512165 0.65836,-1.221805 0.65836,-2.129069 0,-0.93653 -0.2047,-1.660829 -0.61443,-2.172994 -0.40973,-0.512165 -1.06074,-0.768428 -1.95337,-0.768428 z m -54.80906,1.163236 c -1.75599,-0.01463 -3.28547,0.343722 -4.58783,1.075387 -1.30236,0.71703 -2.31172,1.734497 -3.02876,3.051493 -0.7024,1.316995 -1.03902,2.845956 -1.00975,4.587317 0,1.273096 0.13899,2.377996 0.41702,3.314526 0.29267,0.921897 0.70207,1.734147 1.22887,2.436544 0.54143,0.687765 1.19295,1.317042 1.95389,1.88774 0.76092,0.556065 1.60956,1.104463 2.54609,1.645894 1.21457,0.673132 2.15823,1.295338 2.83136,1.866036 0.68776,0.556065 1.16338,1.156026 1.42678,1.799891 0.27804,0.629231 0.41703,1.389917 0.41703,2.282548 0,0.84873 -0.16072,1.617004 -0.48266,2.304768 -0.32193,0.687765 -0.79755,1.23668 -1.42678,1.646412 -0.62923,0.395098 -1.40509,0.592728 -2.32699,0.592728 -1.03897,0 -2.1656,-0.168313 -3.38016,-0.504879 -1.19993,-0.351198 -2.34121,-0.856138 -3.42408,-1.514636 v 4.960421 c 0.71703,0.365832 1.44892,0.666071 2.19522,0.900203 0.7463,0.234133 1.52164,0.402446 2.32647,0.504879 0.80483,0.102433 1.63881,0.153479 2.50217,0.153479 1.81453,0 3.38746,-0.40233 4.71909,-1.207161 1.33163,-0.804831 2.36376,-1.92439 3.09542,-3.358452 0.73167,-1.434061 1.09709,-3.08736 1.09709,-4.96042 0,-1.419429 -0.22643,-2.663326 -0.68006,-3.731556 -0.45363,-1.06823 -1.13447,-2.027062 -2.04173,-2.875793 -0.90726,-0.863364 -2.04097,-1.675096 -3.40186,-2.436027 -1.21456,-0.673131 -2.1734,-1.28068 -2.8758,-1.822111 -0.68776,-0.541432 -1.17804,-1.126734 -1.47071,-1.755965 -0.27803,-0.629232 -0.41703,-1.412164 -0.41703,-2.348694 0,-0.790198 0.15366,-1.48518 0.46096,-2.085144 0.3073,-0.614598 0.7536,-1.090221 1.33893,-1.426786 0.58533,-0.351199 1.30257,-0.526583 2.15129,-0.526583 0.7902,0 1.63176,0.138996 2.5244,0.417029 0.90725,0.263399 1.84384,0.6728 2.80964,1.228865 l 1.40457,-4.323767 c -0.98043,-0.541431 -2.06309,-0.973079 -3.24838,-1.295011 -1.17067,-0.321933 -2.38524,-0.483175 -3.64371,-0.483175 z m 18.85467,7.748364 c -1.28773,0 -2.52404,0.161243 -3.70934,0.483175 -1.17066,0.321932 -2.26091,0.797038 -3.2706,1.426269 l 1.33894,3.446302 c 0.93653,-0.541432 1.79275,-0.936692 2.56832,-1.185458 0.79019,-0.263399 1.52916,-0.394808 2.21691,-0.394808 1.06824,0 1.83651,0.387673 2.30477,1.163237 0.46827,0.775565 0.70229,1.983073 0.70229,3.622001 v 1.316716 l -2.8975,0.153479 c -2.57546,0.117066 -4.56539,0.834294 -5.97018,2.151289 -1.39017,1.316996 -2.08514,3.2119 -2.08514,5.684925 0,1.273096 0.19004,2.473017 0.5705,3.59978 0.38047,1.126763 0.98043,2.041621 1.79989,2.744019 0.81946,0.687764 1.88039,1.031461 3.18276,1.031461 0.92189,0 1.72656,-0.146067 2.41432,-0.438733 0.7024,-0.278032 1.3246,-0.702609 1.86603,-1.273307 0.54144,-0.570699 1.03172,-1.26568 1.47072,-2.085144 h 0.10955 l 0.7245,3.358451 h 3.42408 V 69.253994 c 0,-2.794957 -0.54891,-4.916807 -1.64641,-6.365503 -1.0975,-1.448696 -2.80236,-2.172994 -5.11441,-2.172994 z m 22.03793,0 c -0.81947,0 -1.57309,0.153655 -2.26085,0.460954 -0.68776,0.292666 -1.29479,0.724313 -1.82159,1.295011 -0.5268,0.556065 -0.96603,1.229318 -1.31723,2.019515 h -0.30748 l -0.48266,-3.314526 h -3.66592 v 24.3427 h 4.60954 V 73.249099 c 0,-3.014457 0.30023,-5.173211 0.9002,-6.475574 0.6146,-1.302362 1.62396,-1.953369 3.02876,-1.953369 1.03896,0 1.77084,0.468035 2.19521,1.404566 0.42437,0.921897 0.63665,2.297719 0.63665,4.12688 v 15.167549 h 4.60954 V 69.166144 c 0,-2.794957 -0.52718,-4.902149 -1.58078,-6.321578 -1.03897,-1.419429 -2.55327,-2.129069 -4.54339,-2.129069 z m 41.46362,0 c -1.28774,0 -2.52456,0.161243 -3.70985,0.483175 -1.17067,0.321932 -2.26091,0.797038 -3.27061,1.426269 l 1.33894,3.446302 c 0.93653,-0.541432 1.79275,-0.936692 2.56832,-1.185458 0.79019,-0.263399 1.52915,-0.394808 2.21692,-0.394808 1.06823,0 1.8365,0.387673 2.30477,1.163237 0.46826,0.775565 0.70228,1.983073 0.70228,3.622001 v 1.316716 l -2.89698,0.153479 c -2.57546,0.117066 -4.5659,0.834294 -5.9707,2.151289 -1.39015,1.316996 -2.08514,3.2119 -2.08514,5.684925 0,1.273096 0.19004,2.473017 0.57051,3.59978 0.38046,1.126763 0.98043,2.041621 1.79989,2.744019 0.81946,0.687764 1.88038,1.031461 3.18275,1.031461 0.92189,0 1.72707,-0.146067 2.41484,-0.438733 0.7024,-0.278032 1.32409,-0.702609 1.86552,-1.273307 0.54142,-0.570699 1.03171,-1.26568 1.47071,-2.085144 h 0.10955 l 0.72451,3.358451 h 3.42408 V 69.253994 c 0,-2.794957 -0.5484,-4.916807 -1.6459,-6.365503 -1.0975,-1.448696 -2.80236,-2.172994 -5.11441,-2.172994 z m 19.49131,0.04393 c -1.81452,0 -3.33641,0.497352 -4.56561,1.492416 -1.22919,0.98043 -2.15112,2.414886 -2.76572,4.302579 -0.6146,1.887695 -0.92191,4.199587 -0.92191,6.936011 0,2.473025 0.30024,4.645921 0.9002,6.518982 0.6146,1.873061 1.58758,3.336317 2.91921,4.389913 1.33163,1.038964 3.0658,1.558561 5.20226,1.558561 1.15603,0 2.23869,-0.131409 3.24838,-0.394808 1.0097,-0.263399 1.96853,-0.666247 2.8758,-1.207678 V 80.40474 c -0.98044,0.614598 -1.90995,1.060904 -2.78795,1.338936 -0.87799,0.263399 -1.79233,0.394808 -2.7435,0.394808 -1.69746,0 -2.96361,-0.629278 -3.7977,-1.88774 -0.81947,-1.273096 -1.24352,-3.197316 -1.27279,-5.772774 h 11.58947 v -2.831352 c 0,-2.121827 -0.29265,-4.002072 -0.87798,-5.640999 -0.58533,-1.638929 -1.46328,-2.919729 -2.63395,-3.841626 -1.17066,-0.936531 -2.62684,-1.404566 -4.36821,-1.404566 z m -49.36546,0.417029 v 24.3427 h 4.58783 v -24.3427 z m 49.43161,3.270601 c 0.7902,0 1.4412,0.285064 1.95337,0.855762 0.5268,0.570698 0.92206,1.35363 1.18546,2.348694 0.2634,0.98043 0.3948,2.099989 0.3948,3.358451 h -7.26519 c 0.0732,-2.268159 0.43152,-3.929045 1.07539,-4.982641 0.64387,-1.053597 1.52941,-1.580266 2.65617,-1.580266 z m -80.88602,9.350851 v 2.348177 c 0,1.887693 -0.32904,3.380783 -0.98754,4.47828 -0.6585,1.082863 -1.5511,1.62419 -2.67787,1.62419 -0.83409,0 -1.4851,-0.314897 -1.95337,-0.944129 -0.45363,-0.629231 -0.68058,-1.594618 -0.68058,-2.89698 0,-1.41943 0.35836,-2.5026 1.07539,-3.248898 0.71703,-0.746297 1.81486,-1.163286 3.29282,-1.251086 z m 63.50155,0 v 2.348177 c 0,1.887693 -0.32956,3.380783 -0.98805,4.47828 -0.6585,1.082863 -1.55111,1.62419 -2.67788,1.62419 -0.83409,0 -1.48511,-0.314897 -1.95336,-0.944129 -0.45364,-0.629231 -0.68058,-1.594618 -0.68058,-2.89698 0,-1.41943 0.35887,-2.5026 1.0759,-3.248898 0.71703,-0.746297 1.81434,-1.163286 3.29231,-1.251086 z" />
  </g>
</svg>
