<?xml version="1.0" encoding="UTF-8" standalone="no"?>
<!-- Created with Inkscape (http://www.inkscape.org/) -->

<svg
   width="100mm"
   height="100mm"
   viewBox="0 0 100 100"
   version="1.1"
   id="svg5"
   inkscape:version="1.2.2 (b0a8486541, 2022-12-01)"
   sodipodi:docname="pfp.svg"
   inkscape:export-filename="pfp.png"
   inkscape:export-xdpi="960.936"
   inkscape:export-ydpi="960.936"
   xmlns:inkscape="http://www.inkscape.org/namespaces/inkscape"
   xmlns:sodipodi="http://sodipodi.sourceforge.net/DTD/sodipodi-0.dtd"
   xmlns:xlink="http://www.w3.org/1999/xlink"
   xmlns="http://www.w3.org/2000/svg"
   xmlns:svg="http://www.w3.org/2000/svg">
  <sodipodi:namedview
     id="namedview7"
     pagecolor="#ffffff"
     bordercolor="#666666"
     borderopacity="1.0"
     inkscape:showpageshadow="2"
     inkscape:pageopacity="0.0"
     inkscape:pagecheckerboard="0"
     inkscape:deskcolor="#d1d1d1"
     inkscape:document-units="mm"
     showgrid="false"
     inkscape:zoom="1.0280428"
     inkscape:cx="173.6309"
     inkscape:cy="233.93968"
     inkscape:window-width="1868"
     inkscape:window-height="1006"
     inkscape:window-x="24"
     inkscape:window-y="46"
     inkscape:window-maximized="1"
     inkscape:current-layer="layer1"
     showguides="true" />
  <defs
     id="defs2">
    <linearGradient
       inkscape:collect="always"
       id="linearGradient1350">
      <stop
         style="stop-color:#abdbea;stop-opacity:1;"
         offset="0"
         id="stop1346" />
      <stop
         style="stop-color:#7bb6ff;stop-opacity:1;"
         offset="1"
         id="stop1348" />
    </linearGradient>
    <linearGradient
       inkscape:collect="always"
       xlink:href="#linearGradient1350"
       id="linearGradient1352"
       x1="76.002151"
       y1="19.157415"
       x2="76.002151"
       y2="145.66724"
       gradientUnits="userSpaceOnUse"
       gradientTransform="translate(0,-137.08101)" />
  </defs>
  <g
     inkscape:label="Layer 1"
     inkscape:groupmode="layer"
     id="layer1"
     transform="translate(-26.001732,-18.540503)">
    <rect
       style="fill:url(#linearGradient1352);fill-opacity:1;fill-rule:evenodd;stroke-width:2.64583;stroke-linecap:round;stroke-linejoin:round;paint-order:stroke fill markers"
       id="rect689"
       width="100"
       height="100"
       x="26.001732"
       y="-118.5405"
       transform="scale(1,-1)" />
    <g
       id="g20517"
       transform="matrix(0.68756186,0,0,0.68756186,-46.583706,-7.6059692)"
       inkscape:export-filename="icon_sanifae.svg"
       inkscape:export-xdpi="1031.03"
       inkscape:export-ydpi="1031.03"
       style="fill:#ffffff;fill-opacity:1">
      <path
         id="path20351"
         style="opacity:1;fill:#ffffff;fill-opacity:1;stroke:#e5a8ff;stroke-width:0;stroke-miterlimit:3.96999"
         d="m -179.12012,71.140402 a 38.853859,39.608299 0 0 1 38.85342,39.608018 38.853859,39.608299 0 0 1 -38.85342,39.60877 38.853859,39.608299 0 0 1 -38.85418,-39.60877 38.853859,39.608299 0 0 1 38.85418,-39.608018 z m -2.6689,2.086413 c -1.81603,0 -3.30098,1.484955 -3.30098,3.300981 0,1.816023 1.48495,3.301733 3.30098,3.301733 1.81603,0 3.30173,-1.48571 3.30173,-3.301733 0,-1.816026 -1.4857,-3.300981 -3.30173,-3.300981 z m 0,1.220581 c 1.15641,0 2.08115,0.923986 2.08115,2.0804 0,1.15641 -0.92474,2.081152 -2.08115,2.081152 -1.15641,0 -2.0804,-0.924742 -2.0804,-2.081152 0,-1.156414 0.92399,-2.0804 2.0804,-2.0804 z m 10.24266,4.441143 c -9.52749,0 -17.31963,7.79214 -17.31963,17.31963 0,9.527481 7.79214,17.319631 17.31963,17.319631 9.5275,0 17.32039,-7.79215 17.32039,-17.319631 0,-9.52749 -7.79289,-17.31963 -17.32039,-17.31963 z m 0,6.403543 c 6.06693,0 10.91684,4.849162 10.91684,10.916087 0,6.066921 -4.84991,10.916841 -10.91684,10.916841 -6.06692,0 -10.91608,-4.84992 -10.91608,-10.916841 0,-6.066925 4.84916,-10.916087 10.91608,-10.916087 z m -34.39424,8.417803 c -2.94896,0 -5.36109,2.411367 -5.36109,5.360337 0,2.948968 2.41213,5.361088 5.36109,5.361088 2.94898,0 5.36109,-2.41212 5.36109,-5.361088 0,-2.94897 -2.41211,-5.360337 -5.36109,-5.360337 z m 0,1.981942 c 1.87785,0 3.37915,1.500546 3.37915,3.378395 0,1.877858 -1.5013,3.379148 -3.37915,3.379148 -1.87785,0 -3.37914,-1.50129 -3.37914,-3.379148 0,-1.877849 1.50129,-3.378395 3.37914,-3.378395 z m 4.52081,14.621423 c -6.05882,0 -11.01454,4.95497 -11.01454,11.01379 0,6.05882 4.95572,11.01455 11.01454,11.01455 6.05883,0 11.0138,-4.95573 11.0138,-11.01455 0,-6.05882 -4.95497,-11.01379 -11.0138,-11.01379 z m 48.6271,3.30775 c -4.10155,0 -7.45577,3.35422 -7.45577,7.45576 0,4.10155 3.35422,7.45577 7.45577,7.45577 4.10153,0 7.45652,-3.35422 7.45652,-7.45577 0,-4.10154 -3.35499,-7.45576 -7.45652,-7.45576 z m -48.6271,0.76436 c 3.85814,0 6.94169,3.08354 6.94169,6.94168 0,3.85814 -3.08355,6.94244 -6.94169,6.94244 -3.85814,0 -6.94243,-3.0843 -6.94243,-6.94244 0,-3.85814 3.08429,-6.94168 6.94243,-6.94168 z m 25.33008,0.68245 c -5.772,0 -10.49295,4.72093 -10.49295,10.49294 0,5.77199 4.72095,10.49294 10.49295,10.49294 5.772,0 10.49294,-4.72095 10.49294,-10.49294 0,-5.77201 -4.72094,-10.49294 -10.49294,-10.49294 z m 23.29702,1.30927 c 2.61177,0 4.69969,2.0879 4.69969,4.69968 0,2.61179 -2.08792,4.69969 -4.69969,4.69969 -2.61179,0 -4.69969,-2.0879 -4.69969,-4.69969 0,-2.61178 2.0879,-4.69968 4.69969,-4.69968 z m -23.29702,2.57043 c 3.67549,0 6.61323,2.93773 6.61323,6.61324 0,3.67549 -2.93774,6.61323 -6.61323,6.61323 -3.6755,0 -6.61324,-2.93774 -6.61324,-6.61323 0,-3.67551 2.93774,-6.61324 6.61324,-6.61324 z m -14.74093,15.1776 c -2.09552,0 -3.80981,1.71429 -3.80981,3.80981 0,2.09552 1.71429,3.80905 3.80981,3.80905 2.09552,0 3.80906,-1.71353 3.80906,-3.80905 0,-2.09552 -1.71354,-3.80981 -3.80906,-3.80981 z m 0,1.40848 c 1.33439,0 2.40058,1.06694 2.40058,2.40133 0,1.33439 -1.06619,2.40058 -2.40058,2.40058 -1.33439,0 -2.40133,-1.06619 -2.40133,-2.40058 0,-1.33439 1.06694,-2.40133 2.40133,-2.40133 z m 20.57101,5.23708 c -1.99632,0 -3.62943,1.63235 -3.62943,3.62867 0,1.99632 1.63311,3.62943 3.62943,3.62943 1.99631,0 3.62867,-1.63311 3.62867,-3.62943 0,-1.99632 -1.63236,-3.62867 -3.62867,-3.62867 z m 0,1.34158 c 1.27121,0 2.28708,1.01587 2.28708,2.28709 0,1.27122 -1.01587,2.28784 -2.28708,2.28784 -1.27122,0 -2.28709,-1.01662 -2.28709,-2.28784 0,-1.27122 1.01587,-2.28709 2.28709,-2.28709 z"
         transform="scale(-1,1)" />
      <path
         id="ellipse20462"
         style="opacity:1;fill:#ffffff;fill-opacity:1;stroke:#e5a8ff;stroke-width:0;stroke-miterlimit:3.96999;stroke-dasharray:none;stroke-opacity:1"
         d="m 179.51388,54.73459 a 54.946752,56.013673 0 0 0 -54.9466,56.01424 54.946752,56.013673 0 0 0 54.9466,56.01365 54.946752,56.013673 0 0 0 46.32654,-25.93699 l -8.72245,-5.66291 a 44.605491,45.471613 0 0 1 -37.60409,21.05732 44.605491,45.471613 0 0 1 -44.60536,-45.47107 44.605491,45.471613 0 0 1 44.60536,-45.471649 44.605491,45.471613 0 0 1 37.61888,21.048209 l 8.72302,-5.662909 A 54.946752,56.013673 0 0 0 179.51388,54.73459 Z" />
    </g>
  </g>
</svg>
