<?xml version="1.0" encoding="UTF-8" standalone="no"?>
<!-- Created with Inkscape (http://www.inkscape.org/) -->

<svg
   width="100mm"
   height="100mm"
   viewBox="0 0 100 100"
   version="1.1"
   id="svg5"
   inkscape:version="1.2.2 (b0a8486541, 2022-12-01)"
   sodipodi:docname="read.svg"
   inkscape:export-filename="pfp.png"
   inkscape:export-xdpi="960.936"
   inkscape:export-ydpi="960.936"
   xmlns:inkscape="http://www.inkscape.org/namespaces/inkscape"
   xmlns:sodipodi="http://sodipodi.sourceforge.net/DTD/sodipodi-0.dtd"
   xmlns="http://www.w3.org/2000/svg"
   xmlns:svg="http://www.w3.org/2000/svg">
  <sodipodi:namedview
     id="namedview7"
     pagecolor="#ffffff"
     bordercolor="#666666"
     borderopacity="1.0"
     inkscape:showpageshadow="2"
     inkscape:pageopacity="0.0"
     inkscape:pagecheckerboard="0"
     inkscape:deskcolor="#d1d1d1"
     inkscape:document-units="mm"
     showgrid="false"
     inkscape:zoom="0.72693604"
     inkscape:cx="99.045853"
     inkscape:cy="127.24641"
     inkscape:window-width="1868"
     inkscape:window-height="1006"
     inkscape:window-x="24"
     inkscape:window-y="46"
     inkscape:window-maximized="1"
     inkscape:current-layer="layer1"
     showguides="true" />
  <defs
     id="defs2" />
  <g
     inkscape:label="Layer 1"
     inkscape:groupmode="layer"
     id="layer1"
     transform="translate(-26.001732,-18.540503)">
    <path
       id="rect1586"
       style="fill:#ffffff;fill-opacity:1;fill-rule:evenodd;stroke-width:3.25801;stroke-linecap:round;stroke-linejoin:round;paint-order:stroke fill markers"
       d="m 49.67733,43.990419 c -1.968107,0 -3.822876,0.464626 -5.465444,1.286025 L 76.939639,65.500937 109.66738,45.276444 c -1.64257,-0.821399 -3.49733,-1.286025 -5.46544,-1.286025 z m -9.49978,4.535764 c -1.684553,2.090243 -2.692313,4.750644 -2.692313,7.656329 v 24.384186 c 0,6.754415 5.437678,12.192094 12.192093,12.192094 h 54.52461 c 6.75442,0 12.1921,-5.437679 12.1921,-12.192094 V 56.182512 c 0,-2.905471 -1.00799,-5.56552 -2.69232,-7.655692 L 78.22439,70.452861 a 2.4437536,2.4437536 0 0 1 -2.568867,0 z" />
  </g>
</svg>
